<svg viewBox="0 0 64 64" xmlns="http://www.w3.org/2000/svg" role="img" aria-label="Símbolo de engenharia elétrica: engrenagem, átomo e raio">
  <defs>
    <clipPath id="clip-left">
      <path d="M 0,0 L 27,0 L 24,32 L 27,64 L 0,64 Z" />
    </clipPath>
    <clipPath id="clip-right">
      <path d="M 64,0 L 37,0 L 40,32 L 37,64 L 64,64 Z" />
    </clipPath>
  </defs>

  <g clip-path="url(#clip-left)">
    <ellipse cx="32" cy="32" rx="20" ry="8" fill="none" stroke="#e8edf7" stroke-width="1.6"/>
    <ellipse cx="32" cy="32" rx="20" ry="8" fill="none" stroke="#e8edf7" stroke-width="1.6"
             transform="rotate(60 32 32)"/>
    <ellipse cx="32" cy="32" rx="20" ry="8" fill="none" stroke="#e8edf7" stroke-width="1.6"
             transform="rotate(120 32 32)"/>
    <circle cx="32" cy="32" r="2.4" fill="#e8edf7"/>
    <circle cx="15.3" cy="27.1" r="2" fill="#e8edf7"/>
    <circle cx="21.3" cy="44.9" r="2" fill="#e8edf7"/>
    <circle cx="28.7" cy="14.4" r="2" fill="#e8edf7"/>
  </g>

  <g clip-path="url(#clip-right)">
    <path d="M 62.00,32.00 L 56.37,37.56 L 59.03,45.02 L 51.55,47.59 L 50.70,55.45 L 42.85,54.52 L 38.68,61.25 L 32.00,57.00 L 25.32,61.25 L 21.15,54.52 L 13.30,55.45 L 12.45,47.59 L 4.97,45.02 L 7.63,37.56 L 2.00,32.00 L 7.63,26.44 L 4.97,18.98 L 12.45,16.41 L 13.30,8.55 L 21.15,9.48 L 25.32,2.75 L 32.00,7.00 L 38.68,2.75 L 42.85,9.48 L 50.70,8.55 L 51.55,16.41 L 59.03,18.98 L 56.37,26.44 Z"
          fill="none" stroke="#e8edf7" stroke-width="2.4" stroke-linejoin="round"/>
    <circle cx="32" cy="32" r="19" fill="none" stroke="#e8edf7" stroke-width="1.6"/>
  </g>

  <path d="M 38 2 L 18 30 L 27 30 L 22 62 L 46 33 L 36 33 Z"
        fill="#ffd23f" stroke="#0b1830" stroke-width="1.2" stroke-linejoin="round"/>
</svg>
